General
Complete name                    : Tropic Thunder.mkv
Format                           : Matroska
File size                        : 1.56 GiB
Duration                         : 1h 42mn
Overall bit rate                 : 2 174 Kbps


Video
ID                               : 1
Format                           : AVC

Duration                         : 1h 42mn
Bit rate                         : 1 683 Kbps
Width                            : 720 pixels
Height                           : 436 pixels
Display aspect ratio             : 2.35:1
Original display aspect ratio    : 2.35:1
Frame rate                       : 25.000 fps
Resolution                       : 8 bits
Colorimetry                      : 4:2:0
Scan type                        : Progressive
Bits/(Pixel*Frame)               : 0.214
Stream size                      : 1.20 GiB (77%)
Writing library                  : x264 core 79

Audio
ID                               : 2
Format                           : AC-3
Format/Info                      : Audio Coding 3
Codec ID                         : A_AC3
Duration                         : 1h 42mn
Bit rate mode                    : Constant
Bit rate                         : 448 Kbps
Channel(s)                       : 6 channels
Channel positions                : Front: L C R, Surround: L R, LFE
Sampling rate                    : 48.0 KHz
Stream size                      : 328 MiB (21%)
Language                         : English

Text #1
Language                         : Danish

Text #2
Language                         : English

Text #3
Language                         : Dutch

Text #4
Language                         : Norwegian

Text #5
Language                         : Finnish

Text #6
Language                         : Swedish


Menu
00:00:00.000                     : Chapter  1

